<?xml version="1.0" encoding="UTF-8" standalone="no"?>
<!-- Created with Inkscape (http://www.inkscape.org/) -->

<svg
   width="1000mm"
   height="1000mm"
   viewBox="0 0 1000 1000"
   version="1.1"
   id="svg3317"
   xml:space="preserve"
   inkscape:version="1.2.1 (2ed6d7ae0b, 2022-08-22, custom)"
   sodipodi:docname="gitlab-avatar.svg"
   inkscape:export-filename="../832549c6/gitlab-avatar.png"
   inkscape:export-xdpi="3.2512"
   inkscape:export-ydpi="3.2512"
   xmlns:inkscape="http://www.inkscape.org/namespaces/inkscape"
   xmlns:sodipodi="http://sodipodi.sourceforge.net/DTD/sodipodi-0.dtd"
   xmlns:xlink="http://www.w3.org/1999/xlink"
   xmlns="http://www.w3.org/2000/svg"
   xmlns:svg="http://www.w3.org/2000/svg"><sodipodi:namedview
     id="namedview3319"
     pagecolor="#ffffff"
     bordercolor="#666666"
     borderopacity="1.0"
     inkscape:showpageshadow="2"
     inkscape:pageopacity="0.0"
     inkscape:pagecheckerboard="0"
     inkscape:deskcolor="#d1d1d1"
     inkscape:document-units="mm"
     showgrid="false"
     inkscape:zoom="0.08086703"
     inkscape:cx="1799.25"
     inkscape:cy="1842.5309"
     inkscape:window-width="2560"
     inkscape:window-height="1403"
     inkscape:window-x="2560"
     inkscape:window-y="0"
     inkscape:window-maximized="1"
     inkscape:current-layer="layer1" /><defs
     id="defs3314"><rect
       x="4193.1628"
       y="2614.4924"
       width="3024.7635"
       height="54.38608"
       id="rect3957" /><linearGradient
       id="7"><stop
         id="J"
         stop-color="#fff"
         stop-opacity="0.8" /><stop
         id="K"
         offset="1"
         stop-color="#fff"
         stop-opacity="0" /></linearGradient><linearGradient
       id="8"><stop
         id="L"
         stop-color="#888a85" /><stop
         id="M"
         offset="0.78"
         stop-color="#555753" /><stop
         id="N"
         offset="1"
         stop-color="#2e3436" /></linearGradient><linearGradient
       id="9"><stop
         id="O"
         stop-color="#2e3436" /><stop
         id="P"
         offset="1"
         stop-color="#2e3436"
         stop-opacity="0" /></linearGradient><linearGradient
       id="A"><stop
         id="Q"
         stop-color="#fff"
         stop-opacity="0.45" /><stop
         id="R"
         offset="1"
         stop-color="#fff"
         stop-opacity="0" /></linearGradient><linearGradient
       id="B"><stop
         id="S"
         stop-color="#fff"
         stop-opacity="0.679" /><stop
         id="T"
         offset="1"
         stop-opacity="0.333" /></linearGradient><linearGradient
       y1="3.1"
       x2="0"
       y2="122.9"
       id="C"
       gradientUnits="userSpaceOnUse"><stop
         id="U"
         stop-color="#888a85" /><stop
         id="V"
         offset="1"
         stop-color="#babdb6" /></linearGradient><radialGradient
       cx="26.434"
       cy="46.14"
       r="13.818"
       id="D"
       xlink:href="#9"
       gradientUnits="userSpaceOnUse"
       gradientTransform="matrix(11.161622,0,0,2.0982697,-882.017,544.69135)" /><radialGradient
       cx="16.791"
       cy="8.822"
       r="20.676"
       id="E"
       xlink:href="#A"
       gradientUnits="userSpaceOnUse"
       gradientTransform="matrix(8.5464102,0,0,8.5464102,-1041.163,688.58836)" /><linearGradient
       x1="86.13"
       y1="105.11"
       x2="84.64"
       y2="20.895"
       id="F"
       xlink:href="#B"
       gradientUnits="userSpaceOnUse"
       gradientTransform="matrix(2.5699235,-1.0420221,1.0420221,2.5699235,-870.22568,500.48336)" /><radialGradient
       cx="25.25"
       cy="41.18"
       r="22"
       id="G"
       xlink:href="#C"
       gradientUnits="userSpaceOnUse"
       gradientTransform="matrix(5.5429229,-16.221462,14.377994,4.9130037,-1229.6935,988.71177)" /><linearGradient
       x1="2.35"
       y1="1.35"
       x2="45.65"
       y2="44.65"
       id="H"
       xlink:href="#8"
       gradientUnits="userSpaceOnUse"
       gradientTransform="matrix(8.5464102,0,0,8.5464102,-780.93769,495.96425)" /><linearGradient
       y1="2.39"
       x2="0"
       y2="43.61"
       id="I"
       xlink:href="#7"
       gradientUnits="userSpaceOnUse"
       gradientTransform="matrix(8.5464102,0,0,8.5464102,-1011.8215,787.02991)" /></defs><g
     inkscape:label="Layer 1"
     inkscape:groupmode="layer"
     id="layer1"><text
       xml:space="preserve"
       style="font-style:normal;font-variant:normal;font-weight:normal;font-stretch:normal;font-size:472.589px;line-height:0.7;font-family:Timmana;-inkscape-font-specification:'Timmana, Normal';font-variant-ligatures:normal;font-variant-caps:normal;font-variant-numeric:normal;font-variant-east-asian:normal;fill:#44aa00;stroke:#ffffff;stroke-width:15;stroke-dasharray:none;stroke-opacity:1;paint-order:stroke fill markers"
       x="285.1297"
       y="616.57196"
       id="text3945"><tspan
         sodipodi:role="line"
         id="tspan3943"
         style="font-style:normal;font-variant:normal;font-weight:normal;font-stretch:normal;font-size:472.589px;font-family:Timmana;-inkscape-font-specification:'Timmana, Normal';font-variant-ligatures:normal;font-variant-caps:normal;font-variant-numeric:normal;font-variant-east-asian:normal;fill:#44aa00;stroke:#ffffff;stroke-width:15;stroke-dasharray:none;stroke-opacity:1;paint-order:stroke fill markers"
         x="285.1297"
         y="616.57196">$_</tspan></text><text
       xml:space="preserve"
       transform="scale(0.26458333)"
       id="text3955"
       style="font-size:40px;line-height:0.7;font-family:Inconsolata;-inkscape-font-specification:Inconsolata;white-space:pre;shape-inside:url(#rect3957);display:inline" /><path
       id="2"
       style="fill:#000000;stroke:#ffffff;stroke-width:15;stroke-dasharray:none;stroke-opacity:1"
       d="m 398.86577,47.665695 c -4.26822,-0.09835 -8.61396,0.650841 -12.80645,2.35076 L 268.37968,97.732406 C 251.60962,104.53211 243.671,123.94954 250.58697,141.00625 l 24.36078,60.07851 c -26.7466,20.14783 -50.50563,43.83442 -70.53884,69.71047 l -60.06455,-25.40878 c -8.47556,-3.58532 -16.9957,-3.8505 -24.8264,-0.75241 -7.83091,3.09811 -14.63674,9.1288 -18.16168,17.46198 L 51.645105,379.61391 c -7.050147,16.66634 0.995366,35.31413 17.946708,42.48475 l 60.064547,25.40827 c -4.61703,32.39727 -5.0667,65.94207 -0.89762,99.16759 l -60.078499,24.35975 c -17.056695,6.91591 -25.462619,26.13636 -18.662943,42.90642 l 47.715433,117.67964 c 6.799669,16.77004 26.217129,24.70869 43.273839,17.79272 l 60.07851,-24.36079 c 20.14773,26.74661 43.83335,50.50606 69.70944,70.53936 l -25.40879,60.06404 c -7.17062,16.95124 0.0427,35.93798 16.70906,42.98807 l 117.51789,49.71118 c 16.66632,7.05007 35.31462,-0.99545 42.48526,-17.94671 l 25.40827,-60.06558 c 32.39729,4.61713 65.94206,5.06756 99.16759,0.89865 l 24.36131,60.0785 c 6.91594,17.05671 26.13478,25.46319 42.90487,18.66346 l 117.67964,-47.71595 c 16.77004,-6.79972 24.70866,-26.21709 17.79271,-43.27384 l -24.35975,-60.07851 c 26.74663,-20.14783 50.50506,-43.83288 70.53833,-69.70892 l 60.06558,25.40827 c 16.95125,7.17059 35.93643,-0.0427 42.98653,-16.70906 l 49.71272,-117.51789 c 7.0501,-16.66635 -0.99699,-35.31412 -17.94825,-42.48475 L 870.34294,552.4938 c 4.61713,-32.39728 5.06756,-65.94202 0.89865,-99.16759 l 60.07902,-24.36079 c 17.05674,-6.91594 25.46166,-26.13536 18.66191,-42.90539 L 902.2676,268.37936 c -6.79975,-16.77004 -26.21657,-24.70759 -43.27333,-17.79168 l -60.08005,24.35975 c -20.14788,-26.7467 -43.83284,-50.50607 -69.70892,-70.53936 l 25.40827,-60.06403 c 7.17059,-16.95125 -0.0427,-35.93695 -16.70906,-42.98705 L 620.38662,51.64478 c -16.66637,-7.050072 -35.31419,0.997016 -42.48475,17.948258 l -25.40878,60.064042 c -32.3973,-4.61711 -65.94205,-5.06759 -99.16759,-0.89866 L 428.96574,68.679916 C 423.77875,55.887357 411.67035,47.960709 398.86577,47.665695 Z M 499.99965,213.41682 A 286.58304,286.58304 0 0 1 786.58267,499.99985 286.58304,286.58304 0 0 1 499.99965,786.58287 286.58304,286.58304 0 0 1 213.41663,499.99985 286.58304,286.58304 0 0 1 499.99965,213.41682 Z" /></g></svg>
